<svg xmlns="http://www.w3.org/2000/svg" viewBox="0 0 96.14 45.05"><defs><style>.cls-1{fill:#333;}.cls-2{fill:#fff;}</style></defs><title>Asset 3</title><g id="Layer_2" data-name="Layer 2"><g id="Layer_1-2" data-name="Layer 1"><rect class="cls-1" width="96.14" height="45.05"/><g id="lfU7Ic"><path class="cls-2" d="M57.27,25.54a1.46,1.46,0,0,1-1.87.66c-.12.42-.22.82-.35,1.21a3.29,3.29,0,0,1-1,1.52,2.42,2.42,0,0,1-2.89.15,4.75,4.75,0,0,1-1.89-2.3c-.17-.41-.29-.84-.45-1.28A1.36,1.36,0,0,1,47,26.2c-.12.43-.22.82-.35,1.21a3.26,3.26,0,0,1-1,1.53,2.42,2.42,0,0,1-2.88.13,4.7,4.7,0,0,1-1.85-2.23c-.19-.44-.32-.9-.48-1.36l-.11.14c-.49.72-1,1.45-1.48,2.14a5.33,5.33,0,0,1-.86.85,2,2,0,0,1-2.83-.31c-.17-.21-.31-.44-.47-.66-.22.21-.44.43-.68.64a3.14,3.14,0,0,1-1.33.73,2.14,2.14,0,0,1-2.4-1,4.77,4.77,0,0,1-.58-2,13.58,13.58,0,0,1,0-2.66,2,2,0,0,0,0-.28.37.37,0,0,0-.29-.38c-.38-.08-.76-.13-1.14-.18,0,0-.09.06-.1.1a14.82,14.82,0,0,1-1.41,3.15,11.09,11.09,0,0,1-1.57,2.19,2.13,2.13,0,0,1-3.19,0l-.33-.31c-.25.3-.48.61-.74.89a2.88,2.88,0,0,1-4.05.28,4.14,4.14,0,0,1-1.67-3.11,4.6,4.6,0,0,1,.62-2.85,2.65,2.65,0,0,1,1.93-1.41,3.26,3.26,0,0,1,1.85.21c0-.29-.07-.56-.1-.83a13.62,13.62,0,0,1,.36-5.32,5.21,5.21,0,0,1,.39-.94,1.61,1.61,0,0,1,2.85-.16A4.52,4.52,0,0,1,24,16.89a20,20,0,0,1-.58,6.17,18.59,18.59,0,0,1-1,3.12.3.3,0,0,0,0,.24,4.4,4.4,0,0,0,.41.61c.15.18.26.18.47.07a4.77,4.77,0,0,0,1.92-1.9,15.31,15.31,0,0,0,1.42-3,.24.24,0,0,0-.08-.3,2.41,2.41,0,0,1-.85-2.14,1,1,0,0,1,1.42-.88,2.06,2.06,0,0,1,1.29,1.58c.1.4.09.4.51.46l1.57.23a2,2,0,0,1,.36.11,1.21,1.21,0,0,1,.86,1.19c0,.59-.06,1.18-.09,1.77a7,7,0,0,0,.1,2,1.8,1.8,0,0,0,.21.5.59.59,0,0,0,.78.24,3.1,3.1,0,0,0,1-.87,1.49,1.49,0,0,0,.42-1.18,16.42,16.42,0,0,1,.28-3.82c.08-.41.24-.52.64-.4a1.24,1.24,0,0,1,1.06,1.39c0,1-.09,1.94-.09,2.91a7.85,7.85,0,0,0,.17,1.34,1.13,1.13,0,0,0,.21.44.69.69,0,0,0,1.09.11,4.27,4.27,0,0,0,.6-.75c.7-1.11,1.39-2.23,2.08-3.36a.59.59,0,0,0,.09-.3,31.5,31.5,0,0,1,.24-4.4,11.42,11.42,0,0,1,.83-3.34,3.63,3.63,0,0,1,.57-.88,1.15,1.15,0,0,1,1.63-.14,2.08,2.08,0,0,1,.82,1.61,8.09,8.09,0,0,1-.4,2.81,28.08,28.08,0,0,1-2.15,5.17.78.78,0,0,0-.09.37,8.52,8.52,0,0,0,.4,2.59,3.64,3.64,0,0,0,.68,1.25,1.93,1.93,0,0,0,.35.31.92.92,0,0,0,1.18-.11,3,3,0,0,0,1-1.61c0-.08,0-.17.06-.26a.66.66,0,0,0-.2-.71,4.84,4.84,0,0,1-1.35-2.71.76.76,0,0,1,.24-.81.85.85,0,0,1,.9,0,2.87,2.87,0,0,1,1.12,1.12,4.73,4.73,0,0,1,.74,1.89.22.22,0,0,0,.13.15c.35.11.49,0,.63-.33a8.47,8.47,0,0,1,.55-1c.17-.27.35-.54.51-.81a.36.36,0,0,0,0-.18,31.19,31.19,0,0,1,.2-4.1,12.34,12.34,0,0,1,.84-3.59,3.72,3.72,0,0,1,.59-.94A1.15,1.15,0,0,1,52,13.74a2.1,2.1,0,0,1,.8,1.61,8.33,8.33,0,0,1-.43,2.92,28.25,28.25,0,0,1-2.12,5.06.74.74,0,0,0-.08.36,8.39,8.39,0,0,0,.44,2.69,3.51,3.51,0,0,0,.63,1.13,2.11,2.11,0,0,0,.4.35.88.88,0,0,0,1.12-.1,3.16,3.16,0,0,0,.6-.69,3.43,3.43,0,0,0,.5-1.47.33.33,0,0,0-.13-.32,3.34,3.34,0,0,1-.49-.54,5.12,5.12,0,0,1-1-2.23.79.79,0,0,1,.24-.86.87.87,0,0,1,.93,0,2.9,2.9,0,0,1,1,1,4.59,4.59,0,0,1,.77,1.93.18.18,0,0,0,.16.17c.36.08.51,0,.61-.37a1.11,1.11,0,0,1,.13-.27c.29-.47.59-.94.88-1.41a.6.6,0,0,0,.08-.3,30.2,30.2,0,0,1,.35-5.13,9.41,9.41,0,0,1,.81-2.78,3.2,3.2,0,0,1,.48-.7,1.15,1.15,0,0,1,1.62-.15,2.08,2.08,0,0,1,.84,1.64,8.09,8.09,0,0,1-.39,2.78,28.29,28.29,0,0,1-2.15,5.19.82.82,0,0,0-.09.39A8,8,0,0,0,59,26.3a7.83,7.83,0,0,0,.53,1.06,1.45,1.45,0,0,0,.36.39.92.92,0,0,0,1.32,0,2.71,2.71,0,0,0,.5-.56,3.38,3.38,0,0,0,.56-1.63.29.29,0,0,0-.06-.22,4.55,4.55,0,0,1-1.23-1.83,8.76,8.76,0,0,1-.29-1,.68.68,0,0,1,0-.15c0-.72.44-1,1.1-.73a2.85,2.85,0,0,1,1.16,1.13,4.55,4.55,0,0,1,.74,1.9.16.16,0,0,0,.17.16,3.23,3.23,0,0,0,.75,0,1.11,1.11,0,0,0,.44-.3s0-.14,0-.21a18,18,0,0,1,.2-8.5,5.51,5.51,0,0,1,.85-1.93,1.61,1.61,0,0,1,2.61-.26,3.77,3.77,0,0,1,1,1.79,11.6,11.6,0,0,1,.28,3.79,7.78,7.78,0,0,1-.82,3.2,11.46,11.46,0,0,1-1.52,2.18.47.47,0,0,0-.07.65c.13.2.21.43.32.64s.18.32.27.48a1.35,1.35,0,0,0,1.54.71,3.1,3.1,0,0,0,1.49-.65.32.32,0,0,0,.13-.37,5.22,5.22,0,0,1,1.53-4.89,3.29,3.29,0,0,1,2.5-1,2.45,2.45,0,0,1,2.35,2.78,4.5,4.5,0,0,1-1.92,3,5.28,5.28,0,0,1-1.79.86c.15.1.27.19.4.25a3.9,3.9,0,0,0,2.34.32,4.47,4.47,0,0,0,2.89-1.81c.13-.17.26-.34.39-.51s.28-.21.44,0a1.64,1.64,0,0,1,.52,1.23,1.13,1.13,0,0,1-.21.59,5.89,5.89,0,0,1-5.3,2.42,4.88,4.88,0,0,1-2.68-.9c-.22-.16-.41-.35-.64-.54l-.22.17a5.47,5.47,0,0,1-2.37,1,2.92,2.92,0,0,1-2.74-1,6.28,6.28,0,0,1-1-1.63l-.09-.19a3.58,3.58,0,0,1-1.81.06c-.12.41-.21.81-.34,1.19a3.24,3.24,0,0,1-1,1.55,2.42,2.42,0,0,1-2.85.11,4.69,4.69,0,0,1-1.86-2.23c-.17-.38-.26-.78-.39-1.18Zm-38.8,2.32A1.67,1.67,0,0,0,20,27.19,13.77,13.77,0,0,0,20.7,26a.25.25,0,0,0,0-.17q-.34-1.14-.68-2.28a.47.47,0,0,0-.1-.2,1.65,1.65,0,0,0-2.3,0,2.9,2.9,0,0,0-.53.71,3.59,3.59,0,0,0,0,3.07,1.14,1.14,0,0,0,1,.73Zm3-4.13h.05l0-.07a23.29,23.29,0,0,0,.93-6.79,4.18,4.18,0,0,0-.25-1.43c-.13-.33-.3-.37-.5-.07a3.4,3.4,0,0,0-.42.86,8.84,8.84,0,0,0-.3,2.49,25.13,25.13,0,0,0,.23,3.66C21.34,22.82,21.43,23.27,21.51,23.72Zm45.19-.9c.17-.26.36-.51.5-.78a8.88,8.88,0,0,0,.93-4.79,4.15,4.15,0,0,0-.32-1.47c-.07-.15-.16-.36-.34-.33s-.22.2-.3.32a1,1,0,0,0-.12.32c-.09.37-.19.74-.26,1.12a24.84,24.84,0,0,0-.34,3.57A6.13,6.13,0,0,0,66.7,22.83Zm6.44,2.51a4.05,4.05,0,0,0,2.24-1.72,1.66,1.66,0,0,0,.27-.93.63.63,0,0,0-.83-.61,1.63,1.63,0,0,0-.81.53,3.37,3.37,0,0,0-.82,1.89C73.16,24.76,73.16,25,73.15,25.34ZM41.8,19.92a11.13,11.13,0,0,0,1.11-4.69C42.41,15.67,41.76,18.8,41.8,19.92Zm9.57-4.71c-.49.33-1.28,4-1.14,4.74A15,15,0,0,0,51.37,15.21Zm7.24,4.68a14.74,14.74,0,0,0,1.15-4.64l-.1,0A13.25,13.25,0,0,0,58.61,19.89Z"/><path class="cls-2" d="M33.95,18.29a1.33,1.33,0,0,1,1.3-1.37,1.43,1.43,0,0,1,1.41,1.2,1.81,1.81,0,0,1-.08.91,1.2,1.2,0,0,1-1.47.77A1.53,1.53,0,0,1,33.95,18.29Z"/></g></g></g></svg>