<?xml version="1.0" encoding="utf-8"?>
<!-- Generator: Adobe Illustrator 21.0.0, SVG Export Plug-In . SVG Version: 6.00 Build 0)  -->
<svg version="1.1" id="Layer_1" xmlns="http://www.w3.org/2000/svg" xmlns:xlink="http://www.w3.org/1999/xlink" x="0px" y="0px"
	 viewBox="0 0 147 128.7" style="enable-background:new 0 0 147 128.7;" xml:space="preserve">
<style type="text/css">
	.st0{fill:#D7DD8C;}
</style>
<g id="XMLID_1_">
	<g id="XMLID_377_">
		<path id="XMLID_490_" class="st0" d="M115,56.9c0.2-1.3,0.3-2.7,0.1-4.1c-0.3-2.7-1.5-5.4-3.5-7.4c-1-1-2.1-1.8-3.4-2.5
			c-0.6-0.3-1.3-0.6-1.9-0.9c-0.7-0.2-1.3-0.5-2-0.6c-2.3-0.6-4.7-0.8-7.1-0.7c0.5-1,1-1.9,1.5-2.8l1-1.8l1-1.7
			c0.7-1.1,1.4-2.3,2.1-3.4l0.3-0.5l-0.2-0.5l-1-2.5l-0.5-1.2l-1.1,0.6c-3.2,1.9-6.7,3.1-10.4,3.9c-3.7,0.8-7.4,1.1-11.2,1.3
			c-7.4,0.5-22.1-0.1-28.7,0.3c-1.9,0.1-3.9,0.5-5.8,1.1c-1.9,0.6-3.7,1.4-5.3,2.5c-1.6,1.1-3.1,2.5-4.2,4.1
			c-1.1,1.6-1.9,3.4-2.4,5.3c-0.5,1.9-0.7,3.8-0.7,5.8c0,1.9,0.2,3.9,0.6,5.7c0.4,1.9,0.9,3.7,1.5,5.5c-1.2-3.6-1.8-7.5-1.6-11.3
			c0.1-1.9,0.3-3.8,0.9-5.6c0.5-1.8,1.3-3.5,2.5-5c1.1-1.5,2.5-2.8,4-3.8c1.6-1,3.3-1.7,5.1-2.2c1.8-0.5,3.7-0.8,5.5-0.9
			c0.9-0.1,1.9-0.1,2.8-0.1c0,0,31.4,0.5,29.3,6.5c-0.4,1.3-0.9,2.5-1.3,3.7c-0.4,0.1-0.7,0.2-1.1,0.4c-5.2,1.9-10.1,4.3-14.7,7.4
			c-4.6,3-8.8,6.6-12.6,10.6c-3.8,4-7.2,8.4-10,13.1c-2.9,4.7-5.3,9.7-7,15c-0.8,2.7-1.4,5.4-1.7,8.2c-0.3,2.8-0.2,5.6,0.2,8.4
			c0.5,2.8,1.4,5.6,3,8.1c1.6,2.5,4,4.6,6.8,5.6c11.9,3.8,22-3.7,27.6-14.5c2.5-4.9,4.9-10.3,6.7-15.4C80.1,85.4,90,57.6,95,45
			c0.4-0.9,0.9-1.8,1.4-2.7c2.6-0.2,5.1-0.1,7.6,0.4c2.6,0.5,5,1.6,6.9,3.4c1,0.9,1.8,1.9,2.4,3.1c0.6,1.2,1.1,2.4,1.3,3.7
			c0.5,2.6,0.3,5.4-0.9,7.9C114.4,59.6,114.8,58.3,115,56.9z M36.7,106.4c-0.5-2.5-0.5-5.2-0.2-7.8c0.2-2.6,0.8-5.2,1.5-7.7
			c1.6-5,3.9-9.9,6.6-14.5c2.8-4.6,6-8.8,9.7-12.7c3.7-3.9,7.7-7.4,12.2-10.3c4.3-2.9,8.9-5.3,13.7-7.1c-4,11.5-7.4,22.2-13.5,38.5
			c-5,13.3-10.7,29-18.5,31.9C41.4,119.2,37.6,111.4,36.7,106.4z"/>
		<circle id="XMLID_489_" class="st0" cx="95.7" cy="14.9" r="7.8"/>
	</g>
</g>
</svg>
