<?xml version="1.0" ?><svg enable-background="new 0 0 32 32" id="Layer_1" version="1.1" viewBox="0 0 32 32" xml:space="preserve" xmlns="http://www.w3.org/2000/svg" xmlns:xlink="http://www.w3.org/1999/xlink"><g id="OUTLINE_copy_2"><g><g><polygon points="10.034,17.621 11.064,17.621 11.064,22.826 12.06,22.826 12.06,17.621 13.09,17.621 13.09,16.737 10.034,16.737         "/></g><g><path d="M15.117,21.745c-0.084,0.097-0.174,0.177-0.275,0.24c-0.099,0.064-0.182,0.095-0.247,0.095     c-0.082,0-0.143-0.024-0.182-0.071c-0.036-0.048-0.054-0.124-0.054-0.231v-3.446h-0.883v3.756c0,0.268,0.053,0.467,0.155,0.601     c0.105,0.135,0.257,0.2,0.462,0.2c0.165,0,0.336-0.047,0.514-0.143c0.177-0.094,0.346-0.234,0.51-0.416v0.493H16V18.33h-0.883     V21.745z"/></g><g><path d="M18.344,18.278c-0.137,0-0.273,0.035-0.408,0.107c-0.133,0.07-0.258,0.175-0.379,0.313v-1.961h-0.893v6.09h0.893v-0.345     c0.115,0.138,0.242,0.239,0.377,0.304c0.135,0.066,0.288,0.097,0.462,0.097c0.262,0,0.464-0.083,0.6-0.253     c0.138-0.17,0.208-0.413,0.208-0.731v-2.493c0-0.368-0.072-0.648-0.222-0.84C18.837,18.374,18.624,18.278,18.344,18.278z      M18.297,21.773c0,0.145-0.027,0.247-0.078,0.309c-0.051,0.064-0.13,0.095-0.238,0.095c-0.075,0-0.145-0.016-0.213-0.049     c-0.068-0.031-0.138-0.087-0.21-0.158v-2.799c0.061-0.062,0.121-0.108,0.182-0.137c0.062-0.03,0.123-0.043,0.187-0.043     c0.118,0,0.211,0.039,0.276,0.117c0.063,0.078,0.094,0.194,0.094,0.345C18.297,19.453,18.297,21.773,18.297,21.773z"/></g><g><path d="M15.872,12.159c0.135,0,0.241-0.038,0.321-0.112c0.079-0.077,0.119-0.182,0.119-0.313V9.036     c0-0.108-0.04-0.196-0.122-0.263c-0.081-0.066-0.187-0.099-0.318-0.099c-0.122,0-0.221,0.032-0.296,0.099     c-0.075,0.067-0.114,0.155-0.114,0.263v2.696c0,0.135,0.037,0.239,0.107,0.315C15.639,12.122,15.739,12.159,15.872,12.159z"/></g><g><path d="M16,0C7.164,0,0,7.163,0,16s7.164,16,16,16s16-7.164,16-16S24.836,0,16,0z M18.132,7.942h0.993v3.794     c0,0.117,0.023,0.202,0.064,0.254c0.04,0.053,0.109,0.079,0.202,0.079c0.072,0,0.165-0.035,0.277-0.104     c0.111-0.069,0.214-0.158,0.306-0.267V7.942h0.995v4.949h-0.995v-0.546c-0.182,0.201-0.372,0.356-0.572,0.46     c-0.198,0.105-0.39,0.158-0.578,0.158c-0.231,0-0.403-0.074-0.52-0.221c-0.116-0.147-0.174-0.368-0.174-0.664V7.942H18.132z      M14.438,9.074c0-0.384,0.133-0.689,0.402-0.916c0.267-0.227,0.628-0.341,1.079-0.341c0.411,0,0.749,0.12,1.012,0.36     c0.262,0.239,0.394,0.548,0.394,0.925v2.557c0,0.423-0.129,0.755-0.386,0.996c-0.26,0.241-0.613,0.361-1.066,0.361     c-0.434,0-0.783-0.124-1.045-0.372c-0.26-0.249-0.39-0.584-0.39-1.004V9.074z M11.729,6.182l0.727,2.681h0.07l0.691-2.681h1.139     l-1.303,3.925v2.784h-1.12v-2.658l-1.333-4.05C10.599,6.182,11.729,6.182,11.729,6.182z M22.836,24.17     c-0.726,0.724-6.839,0.74-6.839,0.74s-6.114-0.015-6.841-0.74c-0.728-0.727-0.729-4.303-0.729-4.33     c0-0.021,0.002-3.604,0.729-4.33c0.728-0.725,6.841-0.734,6.841-0.733c0,0,6.114,0.009,6.839,0.734     c0.728,0.727,0.737,4.309,0.737,4.33C23.573,19.84,23.567,23.441,22.836,24.17z"/></g><g><path d="M21.011,18.222c-0.396,0-0.718,0.122-0.967,0.368c-0.25,0.246-0.375,0.563-0.375,0.953v2.017     c0,0.434,0.116,0.773,0.342,1.02c0.227,0.248,0.54,0.37,0.934,0.37c0.44,0,0.771-0.116,0.991-0.347     c0.223-0.235,0.332-0.581,0.332-1.043v-0.23h-0.908v0.205c0,0.265-0.031,0.436-0.089,0.513c-0.058,0.078-0.16,0.116-0.307,0.116     c-0.142,0-0.24-0.044-0.3-0.136c-0.057-0.092-0.087-0.256-0.087-0.493v-0.845h1.689v-1.146c0-0.426-0.108-0.753-0.324-0.98     C21.727,18.336,21.415,18.222,21.011,18.222z M21.36,19.988h-0.781v-0.453c0-0.188,0.03-0.323,0.091-0.402     c0.062-0.084,0.163-0.123,0.304-0.123c0.134,0,0.234,0.039,0.293,0.123c0.063,0.079,0.094,0.214,0.094,0.402v0.453H21.36z"/></g></g></g></svg>