<?xml version="1.0" ?><svg enable-background="new 0 0 32 32" version="1.1" viewBox="0 0 32 32" xml:space="preserve" xmlns="http://www.w3.org/2000/svg" xmlns:xlink="http://www.w3.org/1999/xlink"><g id="OUTLINE_copy_2"><g><g><path d="M16.192,11.565c-0.223-1.703-1.458-3.071-2.754-3.111c-1.297-0.038-2.167,1.266-1.943,2.971     c0.223,1.703,1.457,3.116,2.754,3.154C15.546,14.617,16.416,13.268,16.192,11.565z"/></g><g><path d="M15.329,18.087c-0.381-0.122-0.802-0.195-1.252-0.199c-1.934-0.022-3.665,1.178-3.665,2.618     c0,1.47,1.395,2.693,3.328,2.693c2.718,0,3.666-1.149,3.666-2.618c0-0.176-0.023-0.35-0.062-0.52     C17.131,19.23,16.379,18.818,15.329,18.087z"/></g><g><path d="M16,0C7.163,0,0,7.164,0,16s7.164,16,16,16c8.837,0,16-7.164,16-16S24.837,0,16,0z M13.751,24.005     c-2.796,0-5.156-1.139-5.156-2.958c0-1.847,2.152-3.626,4.948-3.627c0.305,0,0.586-0.004,0.872-0.004     c-0.382-0.372-0.684-0.821-0.684-1.384c0-0.334,0.104-0.64,0.255-0.924c-0.152,0.011-0.307,0.047-0.467,0.047     c-2.297,0-3.835-1.574-3.835-3.597c0-1.98,2.125-3.564,4.382-3.564c1.258,0,4.934,0,4.934,0l-0.8,0.8H16.4     c1.059,0,1.603,1.544,1.603,2.81c0,1.065-0.59,1.84-1.422,2.49c-0.813,0.636-0.967,0.901-0.967,1.441     c0,0.461,0.87,1.245,1.326,1.566c1.33,0.943,1.76,1.817,1.76,3.275C18.7,22.195,16.939,24.005,13.751,24.005z M25.405,15.994     h-2.401v2.401h-1.601v-2.401h-2.401v-1.601h2.401v-2.401h1.601v2.401h2.401V15.994z"/></g></g></g></svg>